<svg width="128" height="128" viewBox="0 0 108 108" xmlns="http://www.w3.org/2000/svg">
  <!-- Background with slightly rounded corners for app icon look -->
  <rect width="108" height="108" fill="#5C6BC0" rx="24" />
  
  <!-- Foreground (Folder and Mountains) -->
  <g transform="translate(24, 24) scale(2.5)">
    <path fill="#FFFFFF" d="M20,6h-8l-2,-2H4C2.9,4 2.01,4.9 2.01,6L2,18c0,1.1 0.9,2 2,2h16c1.1,0 2,-0.9 2,-2V8C22,6.9 21.1,6 20,6zM20,18H4V8h16V18z"/>
    <path fill="#FFFFFF" d="M13.5,14.5l-2.5,-3.2L8.5,15l-1.5,-2L5,17h14L13.5,14.5z"/>
  </g>
</svg>
